<svg xmlns="http://www.w3.org/2000/svg" x="0px" y="0px" width="50" height="50" viewBox="0 0 48 48">
<path d="M 12.5 4 C 10.032499 4 8 6.0324991 8 8.5 L 8 39.5 C 8 41.967501 10.032499 44 12.5 44 L 25.5 44 A 1.50015 1.50015 0 0 0 26.560547 43.560547 A 1.50015 1.50015 0 0 0 26.576172 43.544922 L 39.560547 30.560547 A 1.50015 1.50015 0 0 0 40 29.5 L 40 8.5 C 40 6.0324991 37.967501 4 35.5 4 L 12.5 4 z M 12.5 7 L 35.5 7 C 36.346499 7 37 7.6535009 37 8.5 L 37 28 L 28.5 28 C 26.032499 28 24 30.032499 24 32.5 L 24 41 L 12.5 41 C 11.653501 41 11 40.346499 11 39.5 L 11 8.5 C 11 7.6535009 11.653501 7 12.5 7 z M 28.5 31 L 34.878906 31 L 27 38.878906 L 27 32.5 C 27 31.653501 27.653501 31 28.5 31 z"></path>
</svg>